<mxfile host="app.diagrams.net" agent="Mozilla/5.0 (Windows NT 10.0; Win64; x64) AppleWebKit/537.36 (KHTML, like Gecko) Chrome/140.0.0.0 Safari/537.36 Edg/140.0.0.0" version="28.2.0">
  <diagram name="Stránka-1" id="wjy4-5sGzTB-8bAchug0">
    <mxGraphModel dx="2245" dy="786" grid="1" gridSize="10" guides="1" tooltips="1" connect="1" arrows="1" fold="1" page="1" pageScale="1" pageWidth="827" pageHeight="1169" math="0" shadow="0">
      <root>
        <mxCell id="0" />
        <mxCell id="1" parent="0" />
        <mxCell id="lMKcsYPkDcN1CymjCJAh-1" value="Stránka&lt;div&gt;adaptivní design na telefony a&amp;nbsp;&lt;br&gt;&lt;div&gt;informace o hře&lt;/div&gt;&lt;div&gt;informace o vývoji&lt;/div&gt;&lt;div&gt;ovládání hry&lt;/div&gt;&lt;div&gt;přihlášení na stránku&lt;/div&gt;&lt;div&gt;(možná žebříček)&lt;/div&gt;&lt;div&gt;&lt;br&gt;&lt;/div&gt;&lt;/div&gt;&lt;div&gt;&lt;br&gt;&lt;/div&gt;&lt;div&gt;v .php&lt;/div&gt;" style="rounded=0;whiteSpace=wrap;html=1;" vertex="1" parent="1">
          <mxGeometry x="140" y="180" width="210" height="310" as="geometry" />
        </mxCell>
        <mxCell id="lMKcsYPkDcN1CymjCJAh-2" value="Databáze&lt;div&gt;login + registra (ze strámky + hry)&lt;/div&gt;&lt;div&gt;(žebříček)&lt;/div&gt;&lt;div&gt;&lt;br&gt;&lt;/div&gt;&lt;div&gt;sql&lt;/div&gt;" style="rounded=0;whiteSpace=wrap;html=1;" vertex="1" parent="1">
          <mxGeometry x="490" y="50" width="210" height="400" as="geometry" />
        </mxCell>
        <mxCell id="lMKcsYPkDcN1CymjCJAh-4" value="Aplikace / hra&lt;div&gt;Věže A,B, postavy budou útočit na věže a jiné postavy- postavy by se měli ovládat sami- hráč je jen nakupuje&amp;nbsp;&lt;br&gt;úkol - zničit oponentovu věž pomocí postav&lt;br&gt;hrací plocha (vzduch,&amp;nbsp; voda , zem) + vzhled&lt;/div&gt;&lt;div&gt;postavy ( vzduch , voda , zem) + útoky postav, životy vzhled&lt;/div&gt;&lt;div&gt;nějaká ekonomika vázaná na čas + ceny postav&lt;/div&gt;&lt;div&gt;interface - funkčnost, vzhled&lt;/div&gt;&lt;div&gt;pygame / python&lt;/div&gt;" style="rounded=0;whiteSpace=wrap;html=1;" vertex="1" parent="1">
          <mxGeometry x="-10" y="600" width="880" height="130" as="geometry" />
        </mxCell>
        <mxCell id="lMKcsYPkDcN1CymjCJAh-5" value="" style="endArrow=classic;html=1;rounded=0;entryX=0.138;entryY=0.998;entryDx=0;entryDy=0;entryPerimeter=0;" edge="1" parent="1" source="lMKcsYPkDcN1CymjCJAh-4" target="lMKcsYPkDcN1CymjCJAh-2">
          <mxGeometry width="50" height="50" relative="1" as="geometry">
            <mxPoint x="390" y="430" as="sourcePoint" />
            <mxPoint x="440" y="380" as="targetPoint" />
          </mxGeometry>
        </mxCell>
        <mxCell id="lMKcsYPkDcN1CymjCJAh-6" value="" style="endArrow=classic;html=1;rounded=0;exitX=0.314;exitY=1;exitDx=0;exitDy=0;exitPerimeter=0;entryX=0.576;entryY=0.015;entryDx=0;entryDy=0;entryPerimeter=0;" edge="1" parent="1" source="lMKcsYPkDcN1CymjCJAh-2" target="lMKcsYPkDcN1CymjCJAh-4">
          <mxGeometry width="50" height="50" relative="1" as="geometry">
            <mxPoint x="390" y="430" as="sourcePoint" />
            <mxPoint x="440" y="380" as="targetPoint" />
          </mxGeometry>
        </mxCell>
        <mxCell id="lMKcsYPkDcN1CymjCJAh-9" value="" style="endArrow=classic;html=1;rounded=0;exitX=1;exitY=0.75;exitDx=0;exitDy=0;entryX=0;entryY=0.75;entryDx=0;entryDy=0;" edge="1" parent="1" source="lMKcsYPkDcN1CymjCJAh-1" target="lMKcsYPkDcN1CymjCJAh-2">
          <mxGeometry width="50" height="50" relative="1" as="geometry">
            <mxPoint x="390" y="430" as="sourcePoint" />
            <mxPoint x="440" y="380" as="targetPoint" />
          </mxGeometry>
        </mxCell>
        <mxCell id="lMKcsYPkDcN1CymjCJAh-10" value="" style="endArrow=classic;html=1;rounded=0;exitX=-0.014;exitY=0.61;exitDx=0;exitDy=0;exitPerimeter=0;entryX=1.005;entryY=0.59;entryDx=0;entryDy=0;entryPerimeter=0;" edge="1" parent="1" source="lMKcsYPkDcN1CymjCJAh-2" target="lMKcsYPkDcN1CymjCJAh-1">
          <mxGeometry width="50" height="50" relative="1" as="geometry">
            <mxPoint x="390" y="430" as="sourcePoint" />
            <mxPoint x="440" y="380" as="targetPoint" />
          </mxGeometry>
        </mxCell>
        <mxCell id="lMKcsYPkDcN1CymjCJAh-11" value="Registrace/ kontrola loginu&lt;div&gt;(žebříček)&lt;/div&gt;" style="text;html=1;align=center;verticalAlign=middle;whiteSpace=wrap;rounded=0;" vertex="1" parent="1">
          <mxGeometry x="540" y="500" width="60" height="30" as="geometry" />
        </mxCell>
        <mxCell id="lMKcsYPkDcN1CymjCJAh-12" value="login + registrace&amp;nbsp;&lt;br&gt;(žebříček)" style="text;html=1;align=center;verticalAlign=middle;whiteSpace=wrap;rounded=0;" vertex="1" parent="1">
          <mxGeometry x="370" y="280" width="60" height="30" as="geometry" />
        </mxCell>
      </root>
    </mxGraphModel>
  </diagram>
</mxfile>
